<?xml version="1.0" encoding="UTF-8"?>
<svg width="22px" height="14px" viewBox="0 0 22 14" version="1.1" xmlns="http://www.w3.org/2000/svg" xmlns:xlink="http://www.w3.org/1999/xlink">
    <!-- Generator: Sketch 51.3 (57544) - http://www.bohemiancoding.com/sketch -->
    <title>Shape</title>
    <desc>Created with Sketch.</desc>
    <defs></defs>
    <g id="Page-1" stroke="none" stroke-width="1" fill="none" fill-rule="evenodd">
        <g id="home-copy" transform="translate(-145.000000, -112.000000)" fill="#EBF1F1" fill-rule="nonzero">
            <g id="Group-3" transform="translate(145.000000, 107.000000)">
                <path d="M14.8484583,10.8333333 C16.4817431,10.8333333 17.8182083,9.52073611 17.8182083,7.91666667 C17.8182083,6.31264583 16.4817431,5 14.8484583,5 C13.2151736,5 11.8788056,6.31264583 11.8788056,7.91666667 C11.8788056,9.52073611 13.2151736,10.8333333 14.8484583,10.8333333 Z M6.92931944,10.8333333 C8.56260417,10.8333333 9.89897222,9.52073611 9.89897222,7.91666667 C9.89897222,6.31264583 8.56260417,5 6.92931944,5 C5.29603472,5 3.95956944,6.31264583 3.95956944,7.91666667 C3.95956944,9.52073611 5.29603472,10.8333333 6.92931944,10.8333333 Z M6.92931944,12.9722222 C4.60288889,12.9722222 0,14.0901806 0,16.375 L0,19 L14,19 L14,16.375 C14,14.0901806 9.25560417,12.9722222 6.92931944,12.9722222 Z M14.8484583,13.5070903 C14.5516875,13.5070903 14.3465486,13.5070903 14,13.5555556 C15.1387639,14.3820417 15.5555556,14.9166667 15.5555556,16.375 L15.5555556,19 L21.7777778,19 L21.7777778,16.375 C21.7777778,14.0901806 17.1748889,13.5070903 14.8484583,13.5070903 Z" id="Shape"></path>
            </g>
        </g>
    </g>
</svg>